<svg xmlns="http://www.w3.org/2000/svg" viewBox="0 0 24 24"><defs><style>.cls-1{fill:#fff;}</style></defs><title>Asset 1</title><g id="Layer_2" data-name="Layer 2"><g id="Layer_1-2" data-name="Layer 1"><path class="cls-1" d="M12,0A12,12,0,1,0,24,12,12,12,0,0,0,12,0Zm0,4.65A4.26,4.26,0,1,1,7.74,8.9,4.25,4.25,0,0,1,12,4.65Zm0,16.64A9.28,9.28,0,0,1,4.91,18,5.4,5.4,0,0,1,9.68,15.1a1.33,1.33,0,0,1,.34.05,6.52,6.52,0,0,0,2,.33,6.52,6.52,0,0,0,2-.33,1.33,1.33,0,0,1,.34-.05A5.4,5.4,0,0,1,19.09,18,9.28,9.28,0,0,1,12,21.29Z"/></g></g></svg>